#N canvas 49 55 1203 630 10;
#X obj 101 118 cnv 15 510 150 empty empty value 100 13 2 17 -249659
-83269 0;
#X obj 172 143 hsl 100 12 0 1 0 0 \$0-pitch \$0-pitch-r pitch -45 7
0 13 -13330 -262144 -4160 6100 1;
#X obj 280 143 hsl 100 12 0 1 0 0 \$0-pitch-rnd \$0-pitch-rnd-r random/jitter
-4 -12 2 17 -13330 -262144 -86853 1000 1;
#X obj 171 158 hsl 100 12 0 1 0 0 \$0-duration \$0-duration-r duration
-70 7 0 13 -13330 -262144 -4160 300 1;
#X obj 280 158 hsl 100 12 0 1 0 0 \$0-duration-rnd \$0-duration-rnd-r
empty -2 -6 0 10 -13330 -262144 -1 600 1;
#X obj 171 173 hsl 100 12 0 1 0 0 \$0-delay \$0-delay-r delay -45 7
0 13 -13330 -262144 -4160 400 1;
#X obj 280 173 hsl 100 12 0 1 0 0 \$0-delay-rnd \$0-delay-rnd-r empty
-2 -6 0 10 -13330 -262144 -1 300 1;
#X obj 171 189 hsl 100 12 0 1 0 0 \$0-metro \$0-metro-r metro -45 7
0 13 -13330 -262144 -4160 261 1;
#X obj 280 189 hsl 100 12 0 1 0 0 \$0-metro-rnd \$0-metro-rnd-r empty
-2 -6 0 10 -13330 -262144 -1 1200 1;
#X obj 500 143 hsl 100 12 0 1 0 0 \$0-envelope \$0-envelope-r empty
-2 -6 0 10 -13330 -262144 -1 9900 1;
#X text 529 168 envelope;
#X obj 500 158 hsl 100 12 0 1 0 0 \$0-envelope-exp \$0-envelope-exp-r
empty -2 -6 0 10 -13330 -262144 -1 0 1;
#X obj 446 202 hradio 15 1 0 10 \$0-load \$0-load-r preset -45 7 0
12 -175484 -262144 -1 9;
#X obj 506 183 bng 15 250 50 0 \$0-store rwiuytiuwytriu store 18 8
0 10 -262144 -1 -1;
#X obj 557 183 bng 15 250 50 0 \$0-save troiuyiurtyiutwr save 18 8
0 10 -262144 -1 -1;
#X obj 468 121 cnv 15 140 17 empty empty grannie_basher 0 8 0 16 -258108
-262144 0;
#X text 127 32 delay line granulizer;
#X text 136 48 hard.off@gmail.com;
#X obj 171 204 hsl 100 12 0 1 0 0 \$0-vcf \$0-vcf-r filter -52 7 0
13 -13330 -262144 -4160 7600 1;
#X obj 171 234 hsl 100 12 0 1 0 0 \$0-feedback \$0-feedback-r feedback
-68 7 0 13 -13330 -262144 -4160 900 1;
#X obj 388 234 hsl 100 12 0 1 0 0 \$0-feedback-time \$0-feedback-time-r
empty -2 -6 0 10 -13330 -262144 -1 3000 1;
#X obj 280 234 hsl 100 12 0 1 0 0 \$0-feedback-rnd \$0-feedback-rnd-r
empty -2 -6 0 10 -13330 -262144 -1 700 1;
#X text 385 218 feedback time;
#X obj 280 203 hsl 100 12 0 1 0 0 \$0-vcf-rnd \$0-vcf-rnd-r empty -2
-6 0 10 -13330 -262144 -1 0 1;
#X obj 496 234 hsl 100 12 0 1 0 0 \$0-feedback-return \$0-feedback-return-r
empty -2 -6 0 10 -13330 -262144 -1 0 1;
#X text 493 218 feedback return;
#X obj 171 219 hsl 100 12 0 1 0 0 \$0-autopan \$0-autopan-r autopan
-60 7 0 13 -13330 -262144 -4160 9900 1;
#X obj 280 219 hsl 100 12 0 1 0 0 \$0-autopan-rnd \$0-autopan-rnd-r
empty -2 -6 0 10 -13330 -262144 -1 0 1;
#X obj 171 249 hsl 100 12 0 1 0 0 \$0-feedback-lfo \$0-feedback-lfo-r
fb-lfo -52 7 0 13 -13330 -262144 -4160 0 1;
#X obj 280 249 hsl 100 12 0 1 0 0 \$0-feedback-lfo-rnd \$0-feedback-lfo-rnd-r
empty -2 -6 0 10 -13330 -262144 -1 0 1;
#X obj 388 249 hsl 100 12 0 1 0 0 \$0-feedback-lfo-depth \$0-feedback-lfo-depth-r
empty -2 -6 0 10 -13330 -262144 -1 3000 1;
#N canvas 0 22 450 300 (subpatch) 0;
#X array \$0-env 100 float 0;
#X coords 0 1 99 0 100 40 1;
#X restore 393 143 graph;
#X text 490 248 <--depth;
#X obj 62 287 inlet~;
#X obj 73 587 outlet~;
#X obj 126 586 outlet~;
#X obj 124 334 delwrite~ \$0-L-delayline 10000;
#X obj 247 291 inlet~;
#X obj 313 333 delwrite~ \$0-R-delayline 10000;
#N canvas 19 19 1263 697 code 0;
#N canvas 0 22 454 304 untils 0;
#X obj 261 160 f;
#X obj 288 162 + 1;
#X obj 261 138 until;
#X msg 299 132 0;
#X obj 261 107 t f b;
#X obj 261 78 inlet;
#X obj 261 190 outlet;
#X connect 0 0 1 0;
#X connect 0 0 6 0;
#X connect 1 0 0 1;
#X connect 2 0 0 0;
#X connect 3 0 0 1;
#X connect 4 0 2 0;
#X connect 4 1 3 0;
#X connect 5 0 4 0;
#X restore 29 137 pd untils;
#X msg 31 112 100;
#X obj 57 195 moses 50;
#X obj 60 222 / 50;
#X obj 29 166 t f f;
#X obj 60 445 pack 0 0;
#X obj 102 217 - 100;
#X obj 103 238 abs;
#X obj 103 259 / 50;
#X obj 139 217 - 100;
#X obj 140 238 abs;
#X obj 63 108 t b f;
#X obj 104 291 expr (0.5 * $f1) + 0.5;
#X obj 103 335 cos;
#X obj 103 316 * 6.28318;
#X obj 103 356 * 0.5;
#X obj 103 376 + 0.5;
#X obj 59 468 s \$0-env;
#X obj 64 42 r \$0-envelope;
#X obj 64 64 * 90;
#X obj 61 86 + 5;
#X msg 387 458 \; \$1-go bang;
#X obj 386 417 f;
#X obj 437 421 + 1;
#X obj 471 426 mod 16;
#X obj 512 324 * 10000;
#X obj 410 207 r \$0-metro;
#X obj 515 261 r \$0-metro-rnd;
#X obj 411 266 * 1000;
#X obj 411 244 clip 0.01 1;
#X obj 514 279 pow 3;
#X obj 410 225 pow 3;
#X obj 377 314 delay;
#X obj 324 261 loadbang;
#X msg 374 291 stop;
#X msg 301 217 bang;
#X msg 337 218 stop;
#X obj 376 363 t b b b;
#X obj 376 343 metro 1000;
#X obj 467 350 random 0;
#X obj 157 371 t b f;
#X obj 102 404 pow 1;
#X obj 183 393 + 1;
#X obj 157 348 r \$0-envelope-exp;
#X obj 183 414 pow 4;
#X obj 631 111 r \$0-load;
#N canvas 0 22 454 304 untils 0;
#X obj 261 160 f;
#X obj 288 162 + 1;
#X obj 261 138 until;
#X msg 299 132 0;
#X obj 261 107 t f b;
#X obj 261 78 inlet;
#X obj 261 190 outlet;
#X connect 0 0 1 0;
#X connect 0 0 6 0;
#X connect 1 0 0 1;
#X connect 2 0 0 0;
#X connect 3 0 0 1;
#X connect 4 0 2 0;
#X connect 4 1 3 0;
#X connect 5 0 4 0;
#X restore 631 185 pd untils;
#X obj 631 134 t b f;
#X obj 670 251 tabread \$0-allpreset;
#X obj 631 210 t f f;
#X obj 632 276 pack 0 0;
#X obj 499 608 s \$0-pitch-r;
#X obj 500 630 s \$0-pitch-rnd-r;
#X obj 513 651 s \$0-duration-r;
#X obj 514 672 s \$0-duration-rnd-r;
#X obj 623 585 s \$0-delay-r;
#X obj 623 607 s \$0-delay-rnd-r;
#X obj 637 628 s \$0-metro-r;
#X obj 638 649 s \$0-metro-rnd-r;
#X obj 746 639 s \$0-envelope-r;
#X obj 757 662 s \$0-envelope-exp-r;
#X obj 658 230 +;
#N canvas 0 22 454 304 untils 0;
#X obj 261 160 f;
#X obj 288 162 + 1;
#X obj 261 138 until;
#X msg 299 132 0;
#X obj 261 107 t f b;
#X obj 261 78 inlet;
#X obj 261 190 outlet;
#X connect 0 0 1 0;
#X connect 0 0 6 0;
#X connect 1 0 0 1;
#X connect 2 0 0 0;
#X connect 3 0 0 1;
#X connect 4 0 2 0;
#X connect 4 1 3 0;
#X connect 5 0 4 0;
#X restore 804 156 pd untils;
#X obj 804 181 t f f;
#X obj 803 115 r \$0-store;
#X obj 850 205 tabread \$0-preset;
#X obj 805 229 pack 0 0;
#X obj 804 249 s \$0-storehouse;
#X text 791 9 LOAD/SavE PreseTS;
#X obj 409 391 delay;
#X obj 467 371 / 10;
#X obj 445 290 t b f;
#X obj 627 45 table \$0-preset 22;
#X obj 777 69 table \$0-storehouse 22;
#X msg 630 163 22;
#X obj 659 164 * 22;
#X msg 803 135 22;
#X obj 632 296 route 0 1 2 3 4 5 6 7 8 9 10 11 12 13 14 15 16 17 18
19 20 21;
#N canvas 0 22 808 670 get-sliders 0;
#X obj 28 119 r \$0-pitch;
#X msg 28 140 0 \$1;
#X obj 28 162 s \$0-preset;
#X obj 97 119 r \$0-pitch-rnd;
#X obj 102 161 s \$0-preset;
#X msg 102 139 1 \$1;
#X obj 29 226 s \$0-preset;
#X obj 121 227 s \$0-preset;
#X obj 29 183 r \$0-duration;
#X obj 116 185 r \$0-duration-rnd;
#X msg 28 203 2 \$1;
#X msg 121 205 3 \$1;
#X obj 28 291 s \$0-preset;
#X obj 102 290 s \$0-preset;
#X obj 29 355 s \$0-preset;
#X obj 121 356 s \$0-preset;
#X obj 28 248 r \$0-delay;
#X obj 96 248 r \$0-delay-rnd;
#X msg 27 269 4 \$1;
#X msg 101 267 5 \$1;
#X obj 29 312 r \$0-metro;
#X obj 116 314 r \$0-metro-rnd;
#X msg 27 331 6 \$1;
#X msg 122 334 7 \$1;
#X obj 27 421 s \$0-preset;
#X obj 119 422 s \$0-preset;
#X obj 27 378 r \$0-envelope;
#X msg 28 399 8 \$1;
#X obj 114 379 r \$0-envelope-exp;
#X msg 120 399 9 \$1;
#X obj 302 128 r \$0-vcf;
#X obj 305 154 r \$0-vcf-rnd;
#X obj 304 181 r \$0-autopan;
#X obj 306 210 r \$0-autopan-rnd;
#X obj 323 240 r \$0-feedback-lfo;
#X obj 332 264 r \$0-feedback-lfo-rnd;
#X obj 343 287 r \$0-feedback-lfo-depth;
#X obj 414 132 r \$0-feedback;
#X obj 422 155 r \$0-feedback-rnd;
#X obj 434 180 r \$0-feedback-time;
#X obj 445 205 r \$0-feedback-return;
#X msg 284 335 10 \$1;
#X msg 328 332 11 \$1;
#X msg 371 333 12 \$1;
#X msg 411 336 13 \$1;
#X msg 456 338 14 \$1;
#X msg 500 340 15 \$1;
#X msg 283 366 16 \$1;
#X msg 327 361 17 \$1;
#X msg 370 367 18 \$1;
#X msg 416 368 19 \$1;
#X msg 462 369 20 \$1;
#X msg 503 369 21 \$1;
#X obj 531 272 r \$0-mix;
#X obj 367 454 s \$0-preset;
#X connect 0 0 1 0;
#X connect 1 0 2 0;
#X connect 3 0 5 0;
#X connect 5 0 4 0;
#X connect 8 0 10 0;
#X connect 9 0 11 0;
#X connect 10 0 6 0;
#X connect 11 0 7 0;
#X connect 16 0 18 0;
#X connect 17 0 19 0;
#X connect 18 0 12 0;
#X connect 19 0 13 0;
#X connect 20 0 22 0;
#X connect 21 0 23 0;
#X connect 22 0 14 0;
#X connect 23 0 15 0;
#X connect 26 0 27 0;
#X connect 27 0 24 0;
#X connect 28 0 29 0;
#X connect 29 0 25 0;
#X connect 30 0 41 0;
#X connect 31 0 42 0;
#X connect 32 0 43 0;
#X connect 33 0 44 0;
#X connect 34 0 49 0;
#X connect 35 0 50 0;
#X connect 36 0 51 0;
#X connect 37 0 45 0;
#X connect 38 0 46 0;
#X connect 39 0 47 0;
#X connect 40 0 48 0;
#X connect 41 0 54 0;
#X connect 42 0 54 0;
#X connect 43 0 54 0;
#X connect 44 0 54 0;
#X connect 45 0 54 0;
#X connect 46 0 54 0;
#X connect 47 0 54 0;
#X connect 48 0 54 0;
#X connect 49 0 54 0;
#X connect 50 0 54 0;
#X connect 51 0 54 0;
#X connect 52 0 54 0;
#X connect 53 0 52 0;
#X restore 1020 329 pd get-sliders;
#X obj 795 547 s \$0-vcf-r;
#X obj 801 567 s \$0-vcf-rnd-r;
#X obj 807 587 s \$0-autopan-r;
#X obj 813 607 s \$0-autopan-rnd-r;
#X obj 947 582 s \$0-feedback-r;
#X obj 955 605 s \$0-feedback-rnd-r;
#X obj 967 630 s \$0-feedback-time-r;
#X obj 978 655 s \$0-feedback-return-r;
#X obj 1103 520 s \$0-feedback-lfo-r;
#X obj 1103 539 s \$0-feedback-lfo-rnd-r;
#X obj 1103 558 s \$0-feedback-lfo-depth-r;
#X obj 1132 649 s \$0-mix-r;
#N canvas 0 22 454 304 untils 0;
#X obj 261 160 f;
#X obj 288 162 + 1;
#X obj 261 138 until;
#X msg 299 132 0;
#X obj 261 107 t f b;
#X obj 261 78 inlet;
#X obj 261 190 outlet;
#X connect 0 0 1 0;
#X connect 0 0 6 0;
#X connect 1 0 0 1;
#X connect 2 0 0 0;
#X connect 3 0 0 1;
#X connect 4 0 2 0;
#X connect 4 1 3 0;
#X connect 5 0 4 0;
#X restore 1064 111 pd untils;
#X obj 1064 136 t f f;
#X obj 1065 202 pack 0 0;
#X obj 1066 169 +;
#X obj 1106 177 tabread \$0-storehouse;
#X obj 1063 224 s \$0-allpreset;
#X obj 1027 9 r \$0-save;
#X obj 1020 304 s \$0-allpreset;
#X msg 1018 276 write grannie.txt;
#X obj 1028 64 t b b b f;
#X obj 1051 250 s \$0-load-r;
#X obj 1028 38 f;
#X obj 1057 37 r \$0-load;
#X msg 1063 90 22;
#X obj 1092 90 * 22;
#X obj 326 566 s \$0-allpreset;
#X msg 324 538 read grannie.txt;
#X obj 303 496 loadbang;
#X obj 301 516 t b b;
#X obj 309 615 s \$0-load-r;
#X obj 624 67 table \$0-allpreset 220;
#X obj 529 455 line;
#X obj 529 435 pack 0 200;
#X obj 536 496 line;
#X obj 536 476 pack 0 200;
#X obj 544 538 line;
#X obj 544 518 pack 0 200;
#X obj 548 585 line;
#X obj 548 565 pack 0 200;
#X obj 1109 408 line;
#X obj 1109 388 pack 0 200;
#X obj 1116 449 line;
#X obj 1116 429 pack 0 200;
#X obj 1124 491 line;
#X obj 1124 471 pack 0 200;
#X obj 916 419 line;
#X obj 916 399 pack 0 200;
#X obj 934 459 line;
#X obj 934 439 pack 0 200;
#X obj 950 502 line;
#X obj 950 482 pack 0 200;
#X obj 964 546 line;
#X obj 964 526 pack 0 200;
#X obj 634 428 line;
#X obj 634 408 pack 0 200;
#X obj 641 469 line;
#X obj 641 449 pack 0 200;
#X obj 649 511 line;
#X obj 649 491 pack 0 200;
#X obj 653 558 line;
#X obj 653 538 pack 0 200;
#X obj 785 375 line;
#X obj 785 355 pack 0 200;
#X obj 799 416 line;
#X obj 799 396 pack 0 200;
#X obj 812 457 line;
#X obj 812 437 pack 0 200;
#X obj 824 502 line;
#X obj 824 482 pack 0 200;
#X obj 718 454 line;
#X obj 718 434 pack 0 200;
#X obj 733 507 line;
#X obj 733 487 pack 0 200;
#X floatatom 276 143 5 0 0 0 - - -, f 5;
#X obj 276 112 r \$0-metro-r;
#X connect 0 0 4 0;
#X connect 1 0 0 0;
#X connect 2 0 3 0;
#X connect 2 1 6 0;
#X connect 3 0 12 0;
#X connect 4 0 5 0;
#X connect 4 1 2 0;
#X connect 5 0 17 0;
#X connect 6 0 7 0;
#X connect 7 0 8 0;
#X connect 8 0 12 0;
#X connect 9 0 10 0;
#X connect 10 0 8 1;
#X connect 11 0 1 0;
#X connect 11 1 9 0;
#X connect 11 1 2 1;
#X connect 11 1 3 1;
#X connect 12 0 14 0;
#X connect 13 0 15 0;
#X connect 14 0 13 0;
#X connect 15 0 16 0;
#X connect 16 0 41 0;
#X connect 18 0 19 0;
#X connect 19 0 20 0;
#X connect 20 0 11 0;
#X connect 22 0 23 0;
#X connect 22 0 21 0;
#X connect 23 0 24 0;
#X connect 24 0 22 1;
#X connect 25 0 39 1;
#X connect 26 0 31 0;
#X connect 27 0 30 0;
#X connect 28 0 32 0;
#X connect 28 0 38 1;
#X connect 28 0 71 0;
#X connect 29 0 28 0;
#X connect 30 0 25 0;
#X connect 31 0 29 0;
#X connect 32 0 38 0;
#X connect 33 0 38 0;
#X connect 34 0 32 0;
#X connect 35 0 38 0;
#X connect 36 0 38 0;
#X connect 37 0 34 0;
#X connect 37 1 69 0;
#X connect 37 2 39 0;
#X connect 38 0 37 0;
#X connect 39 0 70 0;
#X connect 40 0 1 0;
#X connect 40 1 42 0;
#X connect 41 0 5 1;
#X connect 42 0 44 0;
#X connect 43 0 40 0;
#X connect 44 0 41 1;
#X connect 45 0 47 0;
#X connect 46 0 49 0;
#X connect 47 0 74 0;
#X connect 47 1 75 0;
#X connect 48 0 50 1;
#X connect 49 0 50 0;
#X connect 49 1 61 0;
#X connect 50 0 77 0;
#X connect 61 0 48 0;
#X connect 62 0 63 0;
#X connect 63 0 66 0;
#X connect 63 1 65 0;
#X connect 64 0 76 0;
#X connect 65 0 66 1;
#X connect 66 0 67 0;
#X connect 69 0 22 0;
#X connect 70 0 69 1;
#X connect 71 0 25 0;
#X connect 71 1 25 1;
#X connect 74 0 46 0;
#X connect 75 0 61 1;
#X connect 76 0 62 0;
#X connect 77 0 113 0;
#X connect 77 1 115 0;
#X connect 77 2 117 0;
#X connect 77 3 119 0;
#X connect 77 4 135 0;
#X connect 77 5 137 0;
#X connect 77 6 139 0;
#X connect 77 7 141 0;
#X connect 77 8 151 0;
#X connect 77 9 153 0;
#X connect 77 10 143 0;
#X connect 77 11 145 0;
#X connect 77 12 147 0;
#X connect 77 13 149 0;
#X connect 77 14 127 0;
#X connect 77 15 129 0;
#X connect 77 16 131 0;
#X connect 77 17 133 0;
#X connect 77 18 121 0;
#X connect 77 19 123 0;
#X connect 77 20 125 0;
#X connect 77 21 90 0;
#X connect 91 0 92 0;
#X connect 92 0 94 0;
#X connect 92 1 95 0;
#X connect 93 0 96 0;
#X connect 94 0 93 0;
#X connect 95 0 93 1;
#X connect 97 0 102 0;
#X connect 99 0 98 0;
#X connect 100 0 99 0;
#X connect 100 1 101 0;
#X connect 100 2 104 0;
#X connect 100 3 105 0;
#X connect 102 0 100 0;
#X connect 103 0 102 1;
#X connect 104 0 91 0;
#X connect 105 0 94 1;
#X connect 107 0 106 0;
#X connect 108 0 109 0;
#X connect 109 0 110 0;
#X connect 109 1 107 0;
#X connect 112 0 51 0;
#X connect 113 0 112 0;
#X connect 114 0 52 0;
#X connect 115 0 114 0;
#X connect 116 0 53 0;
#X connect 117 0 116 0;
#X connect 118 0 54 0;
#X connect 119 0 118 0;
#X connect 120 0 87 0;
#X connect 121 0 120 0;
#X connect 122 0 88 0;
#X connect 123 0 122 0;
#X connect 124 0 89 0;
#X connect 125 0 124 0;
#X connect 126 0 83 0;
#X connect 127 0 126 0;
#X connect 128 0 84 0;
#X connect 129 0 128 0;
#X connect 130 0 85 0;
#X connect 131 0 130 0;
#X connect 132 0 86 0;
#X connect 133 0 132 0;
#X connect 134 0 55 0;
#X connect 135 0 134 0;
#X connect 136 0 56 0;
#X connect 137 0 136 0;
#X connect 138 0 57 0;
#X connect 139 0 138 0;
#X connect 140 0 58 0;
#X connect 141 0 140 0;
#X connect 142 0 79 0;
#X connect 143 0 142 0;
#X connect 144 0 80 0;
#X connect 145 0 144 0;
#X connect 146 0 81 0;
#X connect 147 0 146 0;
#X connect 148 0 82 0;
#X connect 149 0 148 0;
#X connect 150 0 59 0;
#X connect 151 0 150 0;
#X connect 152 0 60 0;
#X connect 153 0 152 0;
#X connect 155 0 154 0;
#X restore 437 394 pd code;
#X obj 489 555 grandma 12 \$0 \$0-L;
#X obj 398 432 grandma 0 \$0 \$0-L;
#X obj 505 576 grandma 14 \$0 \$0-L;
#X obj 476 535 grandma 10 \$0 \$0-L;
#X obj 430 473 grandma 4 \$0 \$0-L;
#X obj 735 591 grandma 15 \$0 \$0-R;
#X obj 459 494 grandma 6 \$0 \$0-L;
#X obj 417 452 grandma 2 \$0 \$0-L;
#X obj 458 515 grandma 8 \$0 \$0-L;
#X obj 639 444 grandma 1 \$0 \$0-R;
#X obj 648 467 grandma 3 \$0 \$0-R;
#X obj 660 489 grandma 5 \$0 \$0-R;
#X obj 677 508 grandma 7 \$0 \$0-R;
#X obj 689 529 grandma 9 \$0 \$0-R;
#X obj 706 549 grandma 11 \$0 \$0-R;
#X obj 720 572 grandma 13 \$0 \$0-R;
#X obj 549 258 hsl 60 10 0 1 0 0 \$0-mix \$0-mix-r mix 17 -6 0 12 -16662
-262144 -4160 5300 1;
#X obj 67 452 *~;
#X obj 94 452 *~;
#X obj 227 363 r \$0-mix;
#X obj 180 526 *~;
#X obj 275 524 *~;
#X obj 276 503 catch~ \$0-Right;
#X obj 180 503 catch~ \$0-Left;
#X obj 229 406 line~;
#X msg 227 385 \$1 20;
#X obj 160 409 -~ 1;
#X obj 160 429 *~ -1;
#X obj 160 448 *~ 2;
#X obj 162 469 min~ 1;
#X obj 242 440 *~ 2;
#X obj 241 461 min~ 1;
#X obj 702 198 osc~;
#X floatatom 702 179 5 0 0 0 - - -, f 5;
#X obj 702 257 *~ 0.01;
#X obj 695 408 dac~;
#X obj 694 219 hsl 128 15 0 0.5 0 0 empty empty empty -2 -8 0 10 -262144
-1 -1 0 1;
#X obj 654 273 osc~;
#X floatatom 654 251 5 0 0 0 - - -, f 5;
#X obj 654 343 *~ 0.01;
#X obj 672 302 hsl 128 15 0 0.5 0 0 empty empty empty -2 -8 0 10 -262144
-1 -1 0 1;
#X floatatom 640 188 5 0 0 0 - - -, f 5;
#X obj 617 25 f;
#X obj 584 51 +;
#X floatatom 612 74 5 0 0 0 - - -, f 5;
#X floatatom 567 8 5 0 0 0 - - -, f 5;
#X obj 518 5 bng 15 250 50 0 empty empty empty 17 7 0 10 -262144 -1
-1;
#X obj 500 35 t b b;
#X obj 735 17 bng 15 250 50 0 empty empty empty 17 7 0 10 -262144 -1
-1;
#X obj 672 33 t b b;
#X obj 622 154 s \$0-load-r;
#X msg 622 134 \$1;
#X obj 622 94 mod 4;
#X obj 622 114 + 6;
#X msg 698 55 1;
#X obj 673 8 r next;
#X obj 472 3 r prev;
#X msg 518 62 -1;
#X obj 696 124 s preset;
#X obj 847 21 loadbang;
#X obj 847 64 netreceive -u -b;
#X obj 847 87 oscparse;
#X obj 847 109 list trim;
#X msg 847 41 listen 6000;
#X obj 865 130 route myo;
#X obj 859 169 route orientation;
#X obj 888 211 route accel;
#X obj 917 255 route gyro;
#X obj 955 298 route pose;
#X obj 955 327 print;
#X obj 955 364 list split 1;
#X obj 989 388 select fist waveOut fingersSpread;
#X obj 1014 418 s next;
#X obj 1070 419 s prev;
#X text 843 6 receiving from myoOSC;
#N canvas 40 106 450 300 MyoToGrannie 1;
#X obj 50 18 inlet;
#X obj 104 18 inlet;
#X obj 151 18 inlet;
#X obj 118 120 f;
#X obj 133 100 r preset;
#X floatatom 118 140 5 0 0 0 - - -, f 5;
#X obj 115 100 bng 15 250 50 0 empty empty empty 17 7 0 10 -262144
-1 -1;
#X text 27 1 orientation accel gyro;
#X obj 88 75 t f b;
#X obj 34 50 unpack s f f f;
#X obj 103 214 spigot;
#X obj 127 188 tgl 15 0 empty empty empty 17 7 0 10 -262144 -1 -1 0
1;
#X obj 118 162 == 8;
#X obj 240 39 inlet;
#X text 240 19 preset;
#X msg 240 61 set \$0;
#X obj 103 239 s \$0-metro-r;
#X floatatom 284 248 5 0 0 0 - - -, f 5;
#X obj 284 217 r \$0-metro-r;
#X connect 0 0 9 0;
#X connect 3 0 5 0;
#X connect 4 0 3 1;
#X connect 5 0 12 0;
#X connect 6 0 3 0;
#X connect 8 0 10 0;
#X connect 8 0 16 0;
#X connect 8 1 6 0;
#X connect 9 2 8 0;
#X connect 10 0 16 0;
#X connect 11 0 10 1;
#X connect 12 0 11 0;
#X connect 13 0 15 0;
#X connect 18 0 17 0;
#X restore 859 497 pd MyoToGrannie;
#X obj 946 469 r preset;
#X connect 33 0 36 0;
#X connect 33 0 57 0;
#X connect 37 0 38 0;
#X connect 37 0 58 0;
#X connect 57 0 34 0;
#X connect 58 0 35 0;
#X connect 59 0 65 0;
#X connect 60 0 34 0;
#X connect 61 0 35 0;
#X connect 62 0 61 0;
#X connect 63 0 60 0;
#X connect 64 0 66 0;
#X connect 64 0 70 0;
#X connect 65 0 64 0;
#X connect 66 0 67 0;
#X connect 67 0 68 0;
#X connect 68 0 69 0;
#X connect 69 0 58 1;
#X connect 69 0 57 1;
#X connect 70 0 71 0;
#X connect 71 0 60 1;
#X connect 71 0 61 1;
#X connect 72 0 74 0;
#X connect 73 0 72 0;
#X connect 74 0 75 0;
#X connect 74 0 75 1;
#X connect 76 0 74 1;
#X connect 77 0 79 0;
#X connect 78 0 77 0;
#X connect 79 0 75 0;
#X connect 79 0 75 1;
#X connect 80 0 79 1;
#X connect 82 0 83 0;
#X connect 83 0 84 0;
#X connect 84 0 82 1;
#X connect 84 0 92 0;
#X connect 85 0 82 0;
#X connect 86 0 87 0;
#X connect 87 1 97 0;
#X connect 87 1 82 0;
#X connect 88 0 89 0;
#X connect 89 0 82 0;
#X connect 89 1 94 0;
#X connect 91 0 90 0;
#X connect 91 0 98 0;
#X connect 92 0 93 0;
#X connect 93 0 91 0;
#X connect 94 0 83 1;
#X connect 95 0 89 0;
#X connect 96 0 87 0;
#X connect 97 0 83 1;
#X connect 99 0 103 0;
#X connect 100 0 101 0;
#X connect 101 0 102 0;
#X connect 102 0 104 0;
#X connect 103 0 100 0;
#X connect 104 0 105 0;
#X connect 104 0 106 0;
#X connect 104 0 107 0;
#X connect 104 0 108 0;
#X connect 105 0 115 0;
#X connect 106 0 115 1;
#X connect 107 0 115 2;
#X connect 108 0 110 0;
#X connect 108 0 109 0;
#X connect 110 1 111 0;
#X connect 111 0 112 0;
#X connect 111 1 113 0;
#X connect 111 2 113 0;
#X connect 116 0 115 3;
#X coords 0 -1 1 1 512 172 1 100 100;
